<svg id="mockup" xmlns="http://www.w3.org/2000/svg" viewBox="0 0 16 16"><defs><style>.cls-1{fill:#bdbdbd;}.cls-2{fill:#333;}</style></defs><g id="iconBackground"><rect class="cls-1" x="12" y="12" width="4" height="4" transform="translate(28) rotate(90)"/><rect class="cls-1" x="12" y="6" width="4" height="4" transform="translate(22 -6) rotate(90)"/><rect class="cls-1" x="12" width="4" height="4" transform="translate(16 -12) rotate(90)"/><rect class="cls-1" x="6" y="12" width="4" height="4" transform="translate(22 6) rotate(90)"/><rect class="cls-1" x="6" y="6" width="4" height="4" transform="translate(16) rotate(90)"/><rect class="cls-1" x="6" width="4" height="4" transform="translate(10 -6) rotate(90)"/><rect class="cls-1" y="12" width="4" height="4" transform="translate(16 12) rotate(90)"/><rect class="cls-1" y="6" width="4" height="4" transform="translate(10 6) rotate(90)"/><rect class="cls-1" width="4" height="4" transform="translate(4) rotate(90)"/></g><g id="IconForeground"><polygon class="cls-2" points="13 0 13 4 15 2 13 0"/><rect class="cls-2" x="1" y="1.5" width="12" height="1"/></g></svg>