<svg id="mockup" xmlns="http://www.w3.org/2000/svg" viewBox="0 0 16 16"><defs><style>.cls-1{fill:#bdbdbd;}.cls-2{fill:#333;}</style></defs><g id="iconBackground"><rect class="cls-1" y="3.5" width="16" height="9"/></g><g id="IconForeground"><rect class="cls-2" x="13.5" y="4" width="2" height="2" transform="translate(19.5 -9.5) rotate(90)"/><rect class="cls-2" x="7" y="4" width="2" height="2" transform="translate(13 -3) rotate(90)"/><rect class="cls-2" x="0.5" y="4" width="2" height="2" transform="translate(6.5 3.5) rotate(90)"/><rect class="cls-2" x="13.5" y="7" width="2" height="2" transform="translate(22.5 -6.5) rotate(90)"/><rect class="cls-2" x="7" y="7" width="2" height="2" transform="translate(16 0) rotate(90)"/><rect class="cls-2" x="0.5" y="7" width="2" height="2" transform="translate(9.5 6.5) rotate(90)"/><rect class="cls-2" x="13.5" y="10" width="2" height="2" transform="translate(25.5 -3.5) rotate(90)"/><rect class="cls-2" x="7" y="10" width="2" height="2" transform="translate(19 3) rotate(90)"/><rect class="cls-2" x="0.5" y="10" width="2" height="2" transform="translate(12.5 9.5) rotate(90)"/></g></svg>