<svg id="mockup" xmlns="http://www.w3.org/2000/svg" viewBox="0 0 16 16"><defs><style>.cls-1{fill:#bdbdbd;}.cls-2{fill:#333;}</style></defs><g id="iconBackground"><rect class="cls-1" y="3.5" width="16" height="9"/></g><g id="IconForeground"><rect class="cls-2" x="10" y="4" width="2" height="2" transform="translate(16 -6) rotate(90)"/><rect class="cls-2" x="7" y="4" width="2" height="2" transform="translate(13 -3) rotate(90)"/><rect class="cls-2" x="4" y="4" width="2" height="2" transform="translate(10 0) rotate(90)"/><rect class="cls-2" x="10" y="7" width="2" height="2" transform="translate(19 -3) rotate(90)"/><rect class="cls-2" x="7" y="7" width="2" height="2" transform="translate(16 0) rotate(90)"/><rect class="cls-2" x="4" y="7" width="2" height="2" transform="translate(13 3) rotate(90)"/><rect class="cls-2" x="10" y="10" width="2" height="2" transform="translate(22 0) rotate(90)"/><rect class="cls-2" x="7" y="10" width="2" height="2" transform="translate(19 3) rotate(90)"/><rect class="cls-2" x="4" y="10" width="2" height="2" transform="translate(16 6) rotate(90)"/></g></svg>