<svg id="mockup" xmlns="http://www.w3.org/2000/svg" viewBox="0 0 16 16"><defs><style>.cls-1{fill:#bdbdbd;}.cls-2{fill:#333;}</style></defs><g id="iconBackground"><rect class="cls-1" y="3.5" width="16" height="9" transform="translate(16 16) rotate(180)"/></g><g id="IconForeground"><rect class="cls-2" x="0.5" y="10" width="2" height="2" transform="translate(-9.5 12.5) rotate(-90)"/><rect class="cls-2" x="3.5" y="10" width="2" height="2" transform="translate(-6.5 15.5) rotate(-90)"/><rect class="cls-2" x="6.5" y="10" width="2" height="2" transform="translate(-3.5 18.5) rotate(-90)"/><rect class="cls-2" x="0.5" y="7" width="2" height="2" transform="translate(-6.5 9.5) rotate(-90)"/><rect class="cls-2" x="3.5" y="7" width="2" height="2" transform="translate(-3.5 12.5) rotate(-90)"/><rect class="cls-2" x="6.5" y="7" width="2" height="2" transform="translate(-0.5 15.5) rotate(-90)"/><rect class="cls-2" x="0.5" y="4" width="2" height="2" transform="translate(-3.5 6.5) rotate(-90)"/><rect class="cls-2" x="3.5" y="4" width="2" height="2" transform="translate(-0.5 9.5) rotate(-90)"/><rect class="cls-2" x="6.5" y="4" width="2" height="2" transform="translate(2.5 12.5) rotate(-90)"/></g></svg>