<svg id="mockup" xmlns="http://www.w3.org/2000/svg" viewBox="0 0 16 16"><defs><style>.cls-1{fill:#bdbdbd;}.cls-2{fill:#333;}</style></defs><g id="iconBackground"><rect class="cls-1" y="3.5" width="16" height="9"/></g><g id="IconForeground"><rect class="cls-2" x="11.5" y="4" width="2" height="2" transform="translate(17.5 -7.5) rotate(90)"/><rect class="cls-2" x="7" y="4" width="2" height="2" transform="translate(13 -3) rotate(90)"/><rect class="cls-2" x="2.5" y="4" width="2" height="2" transform="translate(8.5 1.5) rotate(90)"/><rect class="cls-2" x="11.5" y="7" width="2" height="2" transform="translate(20.5 -4.5) rotate(90)"/><rect class="cls-2" x="7" y="7" width="2" height="2" transform="translate(16) rotate(90)"/><rect class="cls-2" x="2.5" y="7" width="2" height="2" transform="translate(11.5 4.5) rotate(90)"/><rect class="cls-2" x="11.5" y="10" width="2" height="2" transform="translate(23.5 -1.5) rotate(90)"/><rect class="cls-2" x="7" y="10" width="2" height="2" transform="translate(19 3) rotate(90)"/><rect class="cls-2" x="2.5" y="10" width="2" height="2" transform="translate(14.5 7.5) rotate(90)"/></g></svg>