<svg id="mockup" xmlns="http://www.w3.org/2000/svg" viewBox="0 0 16 16"><defs><style>.cls-1{fill:#bdbdbd;}.cls-2{fill:#333;}</style></defs><g id="iconBackground"><rect class="cls-1" y="3.5" width="16" height="9"/></g><g id="IconForeground"><rect class="cls-2" x="12.5" y="3" width="2" height="4" transform="translate(18.5 -8.5) rotate(90)"/><rect class="cls-2" x="1.5" y="3" width="2" height="4" transform="translate(7.5 2.5) rotate(90)"/><rect class="cls-2" x="12.5" y="6" width="2" height="4" transform="translate(21.5 -5.5) rotate(90)"/><rect class="cls-2" x="7" y="5.5" width="2" height="5" transform="translate(16 0) rotate(90)"/><rect class="cls-2" x="1.5" y="6" width="2" height="4" transform="translate(10.5 5.5) rotate(90)"/><rect class="cls-2" x="12.5" y="9" width="2" height="4" transform="translate(24.5 -2.5) rotate(90)"/><rect class="cls-2" x="7" y="8.5" width="2" height="5" transform="translate(19 3) rotate(90)"/><rect class="cls-2" x="1.5" y="9" width="2" height="4" transform="translate(13.5 8.5) rotate(90)"/><rect class="cls-2" x="7" y="2.5" width="2" height="5" transform="translate(13 -3) rotate(90)"/></g></svg>