<svg id="mockup" xmlns="http://www.w3.org/2000/svg" viewBox="0 0 16 16"><defs><style>.cls-1{fill:#bdbdbd;}.cls-2{fill:#333;}</style></defs><g id="iconBackground"><rect class="cls-1" y="3.5" width="16" height="9" transform="translate(16) rotate(90)"/></g><g id="IconForeground"><rect class="cls-2" x="10" y="13.5" width="2" height="2" transform="translate(22 29) rotate(180)"/><rect class="cls-2" x="10" y="10.5" width="2" height="2" transform="translate(22 23) rotate(180)"/><rect class="cls-2" x="10" y="7.5" width="2" height="2" transform="translate(22 17) rotate(180)"/><rect class="cls-2" x="7" y="13.5" width="2" height="2" transform="translate(16 29) rotate(180)"/><rect class="cls-2" x="7" y="10.5" width="2" height="2" transform="translate(16 23) rotate(180)"/><rect class="cls-2" x="7" y="7.5" width="2" height="2" transform="translate(16 17) rotate(180)"/><rect class="cls-2" x="4" y="13.5" width="2" height="2" transform="translate(10 29) rotate(180)"/><rect class="cls-2" x="4" y="10.5" width="2" height="2" transform="translate(10 23) rotate(180)"/><rect class="cls-2" x="4" y="7.5" width="2" height="2" transform="translate(10 17) rotate(180)"/></g></svg>