<svg id="mockup" xmlns="http://www.w3.org/2000/svg" viewBox="0 0 16 16"><defs><style>.cls-1{fill:#bdbdbd;}.cls-2{fill:#333;}</style></defs><g id="iconBackground"><rect class="cls-1" width="4" height="4" transform="translate(0 4) rotate(-90)"/><rect class="cls-1" y="6" width="4" height="4" transform="translate(-6 10) rotate(-90)"/><rect class="cls-1" y="12" width="4" height="4" transform="translate(-12 16) rotate(-90)"/><rect class="cls-1" x="6" width="4" height="4" transform="translate(6 10) rotate(-90)"/><rect class="cls-1" x="6" y="6" width="4" height="4" transform="translate(0 16) rotate(-90)"/><rect class="cls-1" x="6" y="12" width="4" height="4" transform="translate(-6 22) rotate(-90)"/><rect class="cls-1" x="12" width="4" height="4" transform="translate(12 16) rotate(-90)"/><rect class="cls-1" x="12" y="6" width="4" height="4" transform="translate(6 22) rotate(-90)"/><rect class="cls-1" x="12" y="12" width="4" height="4" transform="translate(0 28) rotate(-90)"/></g><g id="IconForeground"><rect class="cls-2" x="7" y="3" width="2" height="16" transform="translate(-3 19) rotate(-90)"/><rect class="cls-2" x="7" y="-3" width="2" height="16" transform="translate(3 13) rotate(-90)"/></g></svg>